<svg id="Grupo_2824" data-name="Grupo 2824" xmlns="http://www.w3.org/2000/svg" xmlns:xlink="http://www.w3.org/1999/xlink" width="41.979" height="37.096" viewBox="0 0 41.979 37.096">
  <defs>
    <clipPath id="clip-path">
      <rect id="Rectángulo_1500" data-name="Rectángulo 1500" width="41.979" height="37.096" fill="none"></rect>
    </clipPath>
  </defs>
  <g id="Grupo_2821" data-name="Grupo 2821" transform="translate(0 0)">
    <g id="Grupo_2820" data-name="Grupo 2820" clip-path="url(#clip-path)">
      <path id="Trazado_5810" data-name="Trazado 5810" d="M2.685,25.37a2.685,2.685,0,1,1,2.685-2.685A2.688,2.688,0,0,1,2.685,25.37m0-4.881a2.2,2.2,0,1,0,2.2,2.2,2.2,2.2,0,0,0-2.2-2.2" transform="translate(0 -17.56)" fill="#222321"></path>
      <path id="Trazado_5811" data-name="Trazado 5811" d="M2.685,265.35a2.685,2.685,0,1,1,2.685-2.685,2.688,2.688,0,0,1-2.685,2.685m0-4.881a2.2,2.2,0,1,0,2.2,2.2,2.2,2.2,0,0,0-2.2-2.2" transform="translate(0 -228.255)" fill="#222321"></path>
      <path id="Trazado_5812" data-name="Trazado 5812" d="M20.245,100.012A.244.244,0,0,1,20,99.768V80.245a.244.244,0,0,1,.488,0V99.768a.244.244,0,0,1-.244.244" transform="translate(-17.56 -70.238)" fill="#222321"></path>
      <path id="Trazado_5813" data-name="Trazado 5813" d="M250,32.927a.244.244,0,0,1-.244-.244V20.914a.425.425,0,0,0-.425-.425H240.24a.244.244,0,1,1,0-.488h9.094a.914.914,0,0,1,.913.913V32.683a.244.244,0,0,1-.244.244" transform="translate(-210.708 -17.56)" fill="#222321"></path>
      <path id="Trazado_5814" data-name="Trazado 5814" d="M249.334,210.24H240.24a.244.244,0,1,1,0-.488h9.094a.425.425,0,0,0,.425-.425v-9.093a.244.244,0,1,1,.488,0v9.093a.914.914,0,0,1-.913.913" transform="translate(-210.708 -175.585)" fill="#222321"></path>
      <path id="Trazado_5815" data-name="Trazado 5815" d="M77.565,12.691H63.429a1.72,1.72,0,0,1-1.718-1.718V7.668L59.169,5.126l2.542-2.542V1.718A1.72,1.72,0,0,1,63.429,0H77.565a1.72,1.72,0,0,1,1.718,1.718v9.255a1.72,1.72,0,0,1-1.718,1.718M59.859,5.126l2.34,2.34v3.508a1.231,1.231,0,0,0,1.23,1.23H77.565a1.231,1.231,0,0,0,1.23-1.23V1.718a1.231,1.231,0,0,0-1.23-1.23H63.429a1.231,1.231,0,0,0-1.23,1.23V2.786Z" transform="translate(-51.948)" fill="#222321"></path>
      <path id="Trazado_5816" data-name="Trazado 5816" d="M112.447,40.491h-12.2a.244.244,0,0,1,0-.488h12.2a.244.244,0,0,1,0,.488" transform="translate(-87.797 -35.121)" fill="#222321"></path>
      <path id="Trazado_5817" data-name="Trazado 5817" d="M109.885,60.49h-9.641a.244.244,0,0,1,0-.488h9.641a.244.244,0,1,1,0,.488" transform="translate(-87.797 -52.68)" fill="#222321"></path>
      <path id="Trazado_5818" data-name="Trazado 5818" d="M76.949,247.793H63.1a1.864,1.864,0,0,1-1.862-1.862v-.056l-2.607-1.994,2.607-1.858v-.177a1.864,1.864,0,0,1,1.862-1.862H76.949a1.864,1.864,0,0,1,1.862,1.862v4.084a1.864,1.864,0,0,1-1.862,1.862m-17.5-3.9,2.274,1.738v.3A1.376,1.376,0,0,0,63.1,247.3H76.949a1.376,1.376,0,0,0,1.374-1.374v-4.084a1.376,1.376,0,0,0-1.374-1.374H63.1a1.376,1.376,0,0,0-1.374,1.374v.428Z" transform="translate(-51.476 -210.698)" fill="#222321"></path>
      <path id="Trazado_5819" data-name="Trazado 5819" d="M105.105,270.469h-4.861a.244.244,0,1,1,0-.488h4.861a.244.244,0,1,1,0,.488" transform="translate(-87.797 -237.034)" fill="#222321"></path>
      <path id="Trazado_5820" data-name="Trazado 5820" d="M165.186,270.469h-4.861a.244.244,0,1,1,0-.488h4.861a.244.244,0,1,1,0,.488" transform="translate(-140.546 -237.034)" fill="#222321"></path>
    </g>
  </g>
  <g id="Grupo_2823" data-name="Grupo 2823" transform="translate(0 0)">
    <g id="Grupo_2822" data-name="Grupo 2822" clip-path="url(#clip-path)">
      <path id="Trazado_5821" data-name="Trazado 5821" d="M302.681,146.779a2.685,2.685,0,1,1,2.685-2.685,2.688,2.688,0,0,1-2.685,2.685m0-4.881a2.2,2.2,0,1,0,2.2,2.2,2.2,2.2,0,0,0-2.2-2.2" transform="translate(-263.387 -124.153)" fill="#6E6AF7"></path>
      <path id="Trazado_5822" data-name="Trazado 5822" d="M135.9,132.677H121.763a1.72,1.72,0,0,1-1.718-1.718V121.7a1.72,1.72,0,0,1,1.718-1.718H135.9a1.72,1.72,0,0,1,1.718,1.718v.866l2.542,2.542-2.542,2.542v3.306a1.72,1.72,0,0,1-1.718,1.718m-14.136-12.2a1.231,1.231,0,0,0-1.23,1.23v9.255a1.231,1.231,0,0,0,1.23,1.23H135.9a1.231,1.231,0,0,0,1.23-1.23v-3.508l2.34-2.34-2.34-2.34V121.7a1.231,1.231,0,0,0-1.23-1.23Z" transform="translate(-105.396 -105.344)" fill="#6E6AF7"></path>
      <path id="Trazado_5823" data-name="Trazado 5823" d="M152.487,160.476h-12.2a.244.244,0,0,1,0-.488h12.2a.244.244,0,1,1,0,.488" transform="translate(-122.95 -140.464)" fill="#6E6AF7"></path>
      <path id="Trazado_5824" data-name="Trazado 5824" d="M149.925,180.476h-9.641a.244.244,0,0,1,0-.488h9.641a.244.244,0,1,1,0,.488" transform="translate(-122.95 -158.023)" fill="#6E6AF7"></path>
    </g>
  </g>
</svg>